<svg xmlns="http://www.w3.org/2000/svg" width="250" height="79" viewBox="0 0 250 79" fill="none"><path d="M22.7 14H14.9V10.7C14.9 6.8 14.2 4.9 11.6 4.9C8.2 4.9 7.8 7 7.8 11.6V37.9C7.8 42.5 8.1 44.6 11.5 44.6C14.2 44.6 14.9 42.9 14.9 39.1V34.8H22.7V39.2C22.7 46.7 20.1 49.6 11.3 49.6C2.2 49.6 0 45.7 0 36.7V12.8C0 3.7 2.3 0 11.5 0C20.2 0 22.7 2.9 22.7 10.3V14Z" fill="#1B6AB3"/><path d="M40.5999 4.99998C36.9999 4.99998 36.4 7.09998 36.4 11.7V38C36.4 42.7 36.9999 44.7 40.5999 44.7C44.0999 44.7 44.7999 42.6 44.7999 38V11.7C44.7999 7.09998 44.1999 4.99998 40.5999 4.99998ZM52.7 36.8C52.7 46 50.3 49.7 40.5 49.7C31.1 49.7 28.7 45.8 28.7 36.8V12.9C28.7 3.69998 31.1 0.0999756 40.9 0.0999756C50.3 0.0999756 52.7 3.79997 52.7 12.9V36.8Z" fill="#1B6AB3"/><path d="M72.5 0.800049L78.1999 41.6H78.5999L84.5 0.800049H96V48.8H89.5V6.20005H88.6999L82.4 48.8H73.8L67.6999 6.20005H67V48.8H60.7V0.800049H72.5Z" fill="#1B6AB3"/><path d="M111.6 23.4H112.9C117.4 23.4 118.3 22.0001 118.3 17.7001V11.3C118.3 7.00005 117.4 5.60005 112.9 5.60005H111.6V23.4ZM113.1 0.800049C122.3 0.800049 126.2 2.80005 126.2 9.50005V19.5C126.2 25.8 122.4 28.2001 113.8 28.2001H111.6V48.8H104.2V0.800049H113.1Z" fill="#1B6AB3"/><path d="M139.4 0.800049V38C139.4 42.7 140 44.7001 143.5 44.7001C146.9 44.7001 147.5 42.6 147.5 38V0.800049H155.4V36.7001C155.4 45.9001 152.9 49.6 143.2 49.6C133.9 49.6 131.5 45.7001 131.5 36.7001V0.800049H139.4Z" fill="#1B6AB3"/><path d="M178.6 31.5C178.1 28.4 177.6 25.2 177 22.1C176.6 19.9 176.1 17.8 175.8 15.5C175.4 13.2 175.1 10.9 174.8 8.59998C174.3 12.4 173.8 16.1 173.2 19.9C172.6 23.8 171.8 27.6 171.1 31.5H178.6ZM180.2 2.09998L190.1 49H181.7L179.9 38.7H169.7L167.5 49H160.3L170.4 2.19998H180.2V2.09998Z" fill="#F49800"/><path d="M212.1 16.9C212 12.4 212.2 10.6 210.5 9.29998C209.6 8.59998 208.7 8.59998 208.4 8.59998C206.4 8.59998 205.3 10.5 204.9 11.1C204.7 11.6 204.6 11.9 204.5 12.9C204.2 14.4 204.2 15.9 204.1 17.4V30.8C204.2 32.5 204.3 34.1 204.3 35.8C204.4 36.3 204.2 38.9 205.4 40.7C205.9 41.5 206.6 41.8 206.9 42C207.2 42.1 207.8 42.3 208.6 42.3C209.9 42.3 210.6 41.7 211 41.2C212.2 39.7 212.2 37.5 212.3 33.3H220C220.1 37.8 220.2 42.3 217.8 45.9C216.5 47.8 215.1 48.4 214.4 48.7C213.4 49.1 211.4 49.6 208.7 49.6C207.8 49.6 203.4 49.6 200.3 47C199.4 46.3 198.6 45.3 198 44.1C196.6 41.4 196.3 38.6 196.1 35.4C196.2 32.3 196.2 29.3 196.2 26.2C196.2 23.3 196.1 20.5 196.1 17.7C196.2 15.8 196.3 14 196.5 12.2C196.9 9.69998 197.2 7.89998 198.5 5.99998C199.8 4.09998 201.5 2.49998 205.6 1.89998C205.8 1.79998 207.4 1.59998 208.7 1.59998C209.3 1.59998 213.1 1.59998 215.8 3.29998C216.5 3.79998 217.4 4.59998 217.9 5.29998C219.1 6.79998 219.6 8.39998 219.8 9.19998C220.4 11.5 220.3 14.3 220.2 16.9H212.1Z" fill="#F49800"/><path d="M249.2 2.19995V9.69995H240.9V48.9H232.9V9.49995H224.4V2.19995H249.2Z" fill="#F49800"/><path d="M8.29995 56.3C13.7 56.3 16.4 60.6 16.4 65.1C16.4 69.7 13.7 73.9 8.29995 73.9C2.89995 73.9 0.199951 69.6 0.199951 65.1C0.199951 60.5 2.89995 56.3 8.29995 56.3ZM8.29995 72.1C12.4 72.1 14.1 68.6 14.1 65.1C14.1 61.7 12.4 58.1 8.29995 58.1C4.19995 58.1 2.49995 61.6 2.49995 65.1C2.39995 68.5 4.19995 72.1 8.29995 72.1Z" fill="#F49800"/><path d="M18.8999 61.3001H20.8999V63.0001C21.5999 61.7001 23.0999 61.1001 24.7999 61.1001C28.5999 61.1001 30.3999 64.1001 30.3999 67.5001C30.3999 71.0001 28.5999 73.9001 24.7999 73.9001C23.4999 73.9001 21.6999 73.4001 20.8999 72.0001V78.3001H18.8999V61.3001ZM24.4999 62.8001C21.7999 62.8001 20.7999 65.1001 20.7999 67.4001C20.7999 69.8001 21.8999 72.0001 24.6999 72.0001C27.3999 72.0001 28.3999 69.7001 28.3999 67.3001C28.2999 65.0001 27.0999 62.8001 24.4999 62.8001Z" fill="#F49800"/><path d="M32.8999 56.7001H34.8999V73.6001H32.8999V56.7001Z" fill="#F49800"/><path d="M48.4999 69.7001C47.9999 72.4001 45.9999 73.9001 43.2999 73.9001C39.3999 73.9001 37.5999 71.2001 37.3999 67.5001C37.3999 63.8001 39.7999 61.1001 43.0999 61.1001C47.3999 61.1001 48.7999 65.1001 48.5999 68.1001H39.3999C39.2999 70.2001 40.4999 72.1001 43.1999 72.1001C44.8999 72.1001 45.9999 71.3001 46.3999 69.7001H48.4999ZM46.5999 66.3001C46.4999 64.4001 45.0999 62.8001 43.0999 62.8001C40.9999 62.8001 39.6999 64.4001 39.5999 66.3001H46.5999Z" fill="#F49800"/><path d="M52.8999 59.1001H50.8999V56.7001H52.8999V59.1001ZM50.8999 61.3001H52.8999V73.5001H50.8999V61.3001Z" fill="#F49800"/><path d="M66.8999 73.6001H64.8999V71.9001C64.1999 73.2001 62.6999 73.8001 60.9999 73.8001C57.1999 73.8001 55.3999 70.8001 55.3999 67.4001C55.3999 63.9001 57.1999 61.0001 60.9999 61.0001C62.2999 61.0001 64.0999 61.5001 64.8999 62.9001V56.7001H66.8999V73.6001ZM61.2999 72.1001C63.9999 72.1001 64.9999 69.8001 64.9999 67.5001C64.9999 65.1001 63.8999 62.9001 61.0999 62.9001C58.3999 62.9001 57.3999 65.2001 57.3999 67.6001C57.4999 69.8001 58.6999 72.1001 61.2999 72.1001Z" fill="#F49800"/><path d="M72.2002 59.1001H70.2002V56.7001H72.2002V59.1001ZM70.2002 61.3001H72.2002V73.5001H70.2002V61.3001Z" fill="#F49800"/><path d="M75.2998 61.3H77.1998V63.2C78.0998 61.7 79.3998 61 81.1998 61C84.3998 61 85.3998 62.8 85.3998 65.5V73.5H83.3998V65.2C83.3998 63.7 82.4998 62.7 80.8998 62.7C78.4998 62.7 77.2998 64.3 77.2998 66.5V73.4H75.2998V61.3Z" fill="#F49800"/><path d="M98.9998 72.5C98.9998 76.5 97.1998 78.5 93.2998 78.5C90.9998 78.5 88.3998 77.6 88.1998 74.9H90.1998C90.2998 76.4 91.9998 76.9 93.3998 76.9C95.9998 76.9 97.0998 75 97.0998 72.3V71.5C96.3998 73 94.7998 73.7 93.2998 73.7C89.6998 73.7 87.7998 70.8 87.7998 67.5C87.7998 64.6 89.1998 61 93.4998 61C94.9998 61 96.3998 61.7 97.0998 63V61.2H98.9998V72.5ZM96.9998 67.2C96.9998 65 96.0998 62.8 93.4998 62.8C90.8998 62.8 89.8998 64.9 89.8998 67.2C89.8998 69.4 90.6998 71.9 93.3998 71.9C96.0998 71.9 96.9998 69.5 96.9998 67.2Z" fill="#F49800"/><path d="M112.5 69.7001C112 72.4001 110 73.9001 107.3 73.9001C103.4 73.9001 101.6 71.2001 101.4 67.5001C101.4 63.8001 103.8 61.1001 107.1 61.1001C111.4 61.1001 112.8 65.1001 112.6 68.1001H103.4C103.3 70.2001 104.5 72.1001 107.2 72.1001C108.9 72.1001 110 71.3001 110.4 69.7001H112.5ZM110.5 66.3001C110.4 64.4001 109 62.8001 107 62.8001C104.9 62.8001 103.6 64.4001 103.5 66.3001H110.5Z" fill="#F49800"/><path d="M114.7 61.3H116.6V63.2C117.5 61.7 118.8 61 120.6 61C123.8 61 124.8 62.8 124.8 65.5V73.5H122.8V65.2C122.8 63.7 121.9 62.7 120.3 62.7C117.9 62.7 116.7 64.3 116.7 66.5V73.4H114.7V61.3Z" fill="#F49800"/><path d="M134.8 56.7001H137.2L146.1 70.4001V56.7001H148.2V73.6001H145.7L136.9 60.0001V73.6001H134.8V56.7001Z" fill="#1B6AB3"/><path d="M162 69.7001C161.5 72.4001 159.5 73.9001 156.8 73.9001C152.9 73.9001 151.1 71.2001 150.9 67.5001C150.9 63.8001 153.3 61.1001 156.6 61.1001C160.9 61.1001 162.3 65.1001 162.1 68.1001H152.9C152.8 70.2001 154 72.1001 156.7 72.1001C158.4 72.1001 159.5 71.3001 159.9 69.7001H162ZM160 66.3001C159.9 64.4001 158.5 62.8001 156.5 62.8001C154.4 62.8001 153.1 64.4001 153 66.3001H160Z" fill="#1B6AB3"/><path d="M175.2 73.6001H173.2V71.9001C172.5 73.2001 171 73.8001 169.3 73.8001C165.5 73.8001 163.7 70.8001 163.7 67.4001C163.7 63.9001 165.5 61.0001 169.3 61.0001C170.6 61.0001 172.4 61.5001 173.2 62.9001V56.7001H175.2V73.6001ZM169.5 72.1001C172.2 72.1001 173.2 69.8001 173.2 67.5001C173.2 65.1001 172.1 62.9001 169.3 62.9001C166.6 62.9001 165.6 65.2001 165.6 67.6001C165.7 69.8001 166.9 72.1001 169.5 72.1001Z" fill="#1B6AB3"/><path d="M188.7 69.7001C188.2 72.4001 186.2 73.9001 183.5 73.9001C179.6 73.9001 177.8 71.2001 177.6 67.5001C177.6 63.8001 180 61.1001 183.3 61.1001C187.6 61.1001 189 65.1001 188.8 68.1001H179.6C179.5 70.2001 180.7 72.1001 183.4 72.1001C185.1 72.1001 186.2 71.3001 186.6 69.7001H188.7ZM186.8 66.3001C186.7 64.4001 185.3 62.8001 183.3 62.8001C181.2 62.8001 179.9 64.4001 179.8 66.3001H186.8Z" fill="#1B6AB3"/><path d="M190.9 61.3H192.8V63.9C193.8 61.9 195.1 61 197.3 61V63.1C194.1 63.1 192.9 64.9 192.9 68V73.4H190.9V61.3Z" fill="#1B6AB3"/><path d="M199 56.7001H201V73.6001H199V56.7001Z" fill="#1B6AB3"/><path d="M214.9 73.5C214.5 73.7 214.1 73.8 213.5 73.8C212.5 73.8 211.8 73.2 211.8 71.9C210.7 73.2 209.2 73.8 207.5 73.8C205.3 73.8 203.5 72.8 203.5 70.4C203.5 67.6 205.6 67 207.6 66.6C209.8 66.2 211.7 66.3 211.7 64.8C211.7 63 210.3 62.8 209 62.8C207.3 62.8 206 63.3 205.9 65.1H203.9C204 62.1 206.4 61 209.1 61C211.3 61 213.7 61.5 213.7 64.4V70.7C213.7 71.6 213.7 72.1 214.3 72.1C214.5 72.1 214.7 72.1 214.9 72V73.5ZM211.7 67.2C210.9 67.8 209.4 67.8 208.1 68C206.8 68.2 205.6 68.7 205.6 70.2C205.6 71.5 206.7 72 208 72C210.6 72 211.7 70.3 211.7 69.2V67.2Z" fill="#1B6AB3"/><path d="M216.8 61.3H218.7V63.2C219.6 61.7 220.9 61 222.7 61C225.9 61 226.9 62.8 226.9 65.5V73.5H224.9V65.2C224.9 63.7 224 62.7 222.4 62.7C220 62.7 218.8 64.3 218.8 66.5V73.4H216.8V61.3Z" fill="#1B6AB3"/><path d="M240.9 73.6001H238.9V71.9001C238.2 73.2001 236.7 73.8001 235 73.8001C231.2 73.8001 229.4 70.8001 229.4 67.4001C229.4 63.9001 231.2 61.0001 235 61.0001C236.3 61.0001 238.1 61.5001 238.9 62.9001V56.7001H240.9V73.6001ZM235.2 72.1001C237.9 72.1001 238.9 69.8001 238.9 67.5001C238.9 65.1001 237.8 62.9001 235 62.9001C232.3 62.9001 231.3 65.2001 231.3 67.6001C231.4 69.8001 232.6 72.1001 235.2 72.1001Z" fill="#1B6AB3"/></svg>